<?xml version="1.0" encoding="utf-8"?>
<svg viewBox="0 0 500 500" xmlns="http://www.w3.org/2000/svg" xmlns:xlink="http://www.w3.org/1999/xlink" xmlns:bx="https://boxy-svg.com">
  <defs>
    <linearGradient id="color-0" bx:pinned="true">
      <stop style="stop-color: #00f260;" offset="0"/>
      <stop style="stop-color: #0575e6;" offset="1"/>
    </linearGradient>
    <linearGradient id="color-1" bx:pinned="true">
      <stop offset="0.159" style="stop-color: rgb(193, 255, 207);"/>
      <stop offset="0.315" style="stop-color: rgb(229, 255, 231);"/>
      <stop offset="0.478" style="stop-color: rgb(227, 255, 254);"/>
      <stop offset="0.651" style="stop-color: rgb(191, 255, 205);"/>
      <stop offset="0.723" style="stop-color: rgb(227, 248, 226);"/>
      <stop offset="0.735" style="stop-color: rgb(235, 255, 231);"/>
      <stop offset="0.924" style="stop-color: rgb(208, 255, 247);"/>
    </linearGradient>
    <radialGradient id="color-1-0" gradientUnits="userSpaceOnUse" cx="12" cy="11.244" r="9" xlink:href="#color-1"/>
  </defs>
  <g transform="matrix(1.348529, 0.336241, -0.346567, 1.439543, -13.437489, -186.839468)" style="transform-origin: -6.682px 1.914px;">
    <radialGradient id="t" cx="-25.872" cy="20.8" r="0" gradientUnits="userSpaceOnUse">
      <stop stop-color="#F6F6F6" offset="0"/>
      <stop stop-color="#F2F2F2" offset="0.2275"/>
      <stop stop-color="#E7E7E7" offset="0.5097"/>
      <stop stop-color="#D4D4D4" offset="0.8195"/>
      <stop stop-color="#C6C6C6" offset="1"/>
    </radialGradient>
    <path d="m-25.9 20.8" fill="url(#t)"/>
    <linearGradient id="u" x1="122.86" x2="199.39" y1="297.44" y2="297.44" gradientUnits="userSpaceOnUse">
      <stop stop-color="#2C6B35" offset="0"/>
      <stop stop-color="#92C144" offset="1"/>
    </linearGradient>
    <path d="m179.4 354.4c-26.4 18.2-43.9 31.4-43.9 49.9 0 8.4 0 16.2-0.1 23.5-0.5 1.2-0.9 2.3-1.4 3.6-3.4-75.6-10.3-113.3-11-125.7-2.7-50.7 15.4-118 76.3-142.3-23.9 55-44.3 119.2-19.9 191z" fill="url(#u)"/>
    <linearGradient id="v" x1="168.38" x2="238.16" y1="253.4" y2="253.4" gradientUnits="userSpaceOnUse">
      <stop stop-color="#2C6B35" offset="0"/>
      <stop stop-color="#92C144" offset="1"/>
    </linearGradient>
    <path d="m234.5 314.4c-20.3 16.6-39.3 29.2-55 40-24.5-71.8-4.1-136 19.9-191 6.2-2.5 12.8-4.5 19.9-6 6.5-1.4 12.8-3.1 18.9-5-15.7 40.3-22.1 109.7-3.7 162z" fill="url(#v)"/>
    <linearGradient id="w" x1="223.28" x2="302.15" y1="217.57" y2="217.57" gradientUnits="userSpaceOnUse">
      <stop stop-color="#2C6B35" offset="0"/>
      <stop stop-color="#92C144" offset="1"/>
    </linearGradient>
    <path d="m269.8 282.1l-0.6 0.6c-11.8 12-23.5 22.4-34.8 31.6-18.4-52.3-11.9-121.6 3.7-162 24.2-7.6 45-19.1 61.8-31.6 4.1 38.6 6.6 122.6-30.1 161.4z" fill="url(#w)"/>
    <linearGradient id="x" x1="269.84" x2="345.2" y1="174.03" y2="174.03" gradientUnits="userSpaceOnUse">
      <stop stop-color="#2C6B35" offset="0"/>
      <stop stop-color="#92C144" offset="1"/>
    </linearGradient>
    <path d="m345.2 65.9c-1.9 50.7-11.1 139.9-49.8 187.6-8.5 10.4-17 19.9-25.5 28.6 36.6-38.8 34.1-122.8 30.1-161.3 25.1-18.9 41-40.2 45.2-54.9z" fill="url(#x)"/>
    <linearGradient id="y" x1="327.52" x2="351.56" y1="256.63" y2="97.27" gradientUnits="userSpaceOnUse">
      <stop stop-color="#92C144" offset="0"/>
      <stop stop-color="#2C6B35" offset="1"/>
    </linearGradient>
    <path d="m393.1 182.4c-37.8 101.9-123.8 100.4-123.8 100.4l0.6-0.6c8.5-8.7 17-18.1 25.5-28.6 38.8-47.7 47.9-136.9 49.8-187.6 0.6-2.2 1-4.2 1.1-6.1 7.2 8 36 61.5 46.8 122.5z" fill="url(#y)"/>
    <linearGradient id="z" x1="234.46" x2="397.14" y1="251.75" y2="251.75" gradientUnits="userSpaceOnUse">
      <stop stop-color="#92C144" offset="0"/>
      <stop stop-color="#2C6B35" offset="1"/>
    </linearGradient>
    <path d="m368.7 317.4c-57 9.8-134.2-3.1-134.2-3.1 11.3-9.2 23-19.6 34.8-31.6 0 0 86 1.5 123.8-100.4 8.2 46.4 5.9 97-24.4 135.1z" fill="url(#z)"/>
    <linearGradient id="aa" x1="179.45" x2="368.71" y1="340.58" y2="340.58" gradientUnits="userSpaceOnUse">
      <stop stop-color="#92C144" offset="0"/>
      <stop stop-color="#2C6B35" offset="1"/>
    </linearGradient>
    <path d="m368.7 317.4c-9.2 11.6-21.1 22.1-36.1 30.9-12.3 6.9-23.7 12.8-34.4 17.9-61.1 3.7-118.8-11.8-118.8-11.8 15.8-10.8 34.7-23.5 55-40 0.1 0 77.3 12.9 134.3 3z" fill="url(#aa)"/>
    <linearGradient id="ab" x1="135.46" x2="298.24" y1="391.13" y2="391.13" gradientUnits="userSpaceOnUse">
      <stop stop-color="#92C144" offset="0"/>
      <stop stop-color="#2C6B35" offset="1"/>
    </linearGradient>
    <path d="m298.2 366.2c-115.4 54.9-143.3 12.5-162.8 61.6 0-7.3 0.1-15.1 0.1-23.5 0-18.5 17.5-31.7 43.9-49.9 0 0 57.7 15.5 118.8 11.8z" fill="url(#ab)"/>
    <linearGradient id="o" x1="322.57" x2="112.38" y1="64.627" y2="410.13" gradientUnits="userSpaceOnUse">
      <stop stop-color="#7BC8CD" offset="0"/>
      <stop stop-color="#7BC8CD" stop-opacity="0" offset="1"/>
    </linearGradient>
    <path d="m295.1 254c38.8-47.7 47.5-136.9 49.5-187.6-7.8 26.9-54.4 76.2-125.5 91.4-76.9 16.5-99.1 92.5-96.2 148.4 0.7 12.4 7.6 50.1 11 125.7 0.5-1.3 0.9-2.5 1.4-3.6 0-7.3 0.1-15.1 0.1-23.5-0.2-40.2 82-55.3 159.7-150.8z" fill="url(#o)" opacity=".44"/>
    <linearGradient id="p" x1="134.92" x2="396.6" y1="244.95" y2="244.95" gradientUnits="userSpaceOnUse">
      <stop stop-color="#19598C" offset="0"/>
      <stop stop-color="#19598C" stop-opacity="0" offset="1"/>
    </linearGradient>
    <path d="m345.8 61c-0.1 1.9-0.5 3.9-1.1 6.1-1.9 50.7-11.1 139.9-49.8 187.6-77.7 95.4-159.9 110.5-159.9 150.7 0 8.4 0 16.2-0.1 23.5 21.2-53.7 52.6 1.9 197.1-79.5 128.5-75.5 28-272.5 13.8-288.4z" fill="url(#p)"/>
    <linearGradient id="q" x1="135.06" x2="346.42" y1="243.97" y2="243.97" gradientUnits="userSpaceOnUse">
      <stop stop-color="#2C6B35" offset="0"/>
      <stop stop-color="#92C144" offset="0.4988"/>
      <stop stop-color="#2C6B35" offset="1"/>
    </linearGradient>
    <path d="m297.7 256c38.8-47.7 46.4-139.3 48.4-189.9 0.6-2.2 0.3-4.2 0.4-6 0 0 0-0.1-0.1-0.1-0.1 1.9-0.5 3.9-1.1 6.1-1.9 50.7-11.5 139.9-50.2 187.6-77.6 95.5-159.8 110.6-159.8 150.8 0 8.4 0 16.2-0.1 23.5 0-7.3 0-17.2 3-25.2 18.4-48.7 81.9-51.3 159.5-146.8z" fill="url(#q)"/>
    <linearGradient id="r" x1="135.06" x2="205.05" y1="412.16" y2="412.16" gradientUnits="userSpaceOnUse">
      <stop stop-color="#2C6B35" offset="0"/>
      <stop stop-color="#92C144" offset="0.4988"/>
      <stop stop-color="#2C6B35" offset="1"/>
    </linearGradient>
    <path d="m135.1 428c12.6-31.8 28.8-25.2 70-31.6-41.5 4.3-58.6-3.2-70 31.6z" fill="url(#r)"/>
    <linearGradient id="s" x1="122.9" x2="345.25" y1="248.53" y2="248.53" gradientUnits="userSpaceOnUse">
      <stop stop-color="#2C6B35" offset="0"/>
      <stop stop-color="#92C144" offset="0.4988"/>
      <stop stop-color="#2C6B35" offset="1"/>
    </linearGradient>
    <path d="m224.8 159.6c71.2-15.2 112.7-66.9 120.5-93.8-7.8 26.9-54.8 76.2-125.9 91.4-76.9 16.5-99.1 92.5-96.2 148.4 0.7 12.4 7.6 50.1 11 125.7-3.4-75.6-4.9-111-5.5-123.4-3-55.8 19.1-131.9 96.1-148.3z" fill="url(#s)"/>
  </g>
  <g transform="matrix(13.029411, 0, 0, 13.408623, 86.074623, 108.208679)" style="">
    <path d="M13 6.25034C13 6.80262 12.5523 7.25034 12 7.25034C11.4477 7.25034 11 6.80262 11 6.25034C11 5.69805 11.4477 5.25034 12 5.25034C12.5523 5.25034 13 5.69805 13 6.25034ZM13.0316 2.32465C12.417 1.87616 11.583 1.87616 10.9684 2.32465L3.54657 7.7406C2.56949 8.4536 3.07382 10.0003 4.2834 10.0003H4.5L4.5 15.8002C3.60958 16.2554 3 17.1817 3 18.2503V19.7503C3 20.1645 3.33579 20.5003 3.75 20.5003H20.25C20.6642 20.5003 21 20.1645 21 19.7503V18.2503C21 17.1817 20.3904 16.2554 19.5 15.8002V10.0003H19.7166C20.9262 10.0003 21.4305 8.45361 20.4534 7.7406L13.0316 2.32465ZM11.8526 3.53633C11.9404 3.47226 12.0596 3.47226 12.1474 3.53633L18.9499 8.50034H5.05011L11.8526 3.53633ZM18 10.0003V15.5003H16V10.0003H18ZM14.5 10.0003V15.5003H12.75V10.0003H14.5ZM11.25 10.0003V15.5003H9.5L9.5 10.0003H11.25ZM5.75 17.0003H18.25C18.9404 17.0003 19.5 17.56 19.5 18.2503V19.0003H4.5V18.2503C4.5 17.56 5.05964 17.0003 5.75 17.0003ZM6 15.5003L6 10.0003H8L8 15.5003H6Z" style="stroke-width: 0.102063px; stroke: rgb(255, 255, 255); paint-order: fill; fill-rule: nonzero; fill: url('#color-1-0');"/>
  </g>
</svg>