<?xml version="1.0" encoding="utf-8"?>
<svg viewBox="0 0 505 505" xmlns="http://www.w3.org/2000/svg" xmlns:bx="https://boxy-svg.com">
  <defs>
    <path id="path-0" d="M 122.238 236.153 C 86.251 195.746 76.784 164.925 76.784 128.446 C 87.78 75.441 130.737 51.832 170.657 38.525 C 255.494 31.087 317.555 58.12 379.155 88.92 L 394.966 95.837 C 426.718 115.683 449.313 146.927 449.313 186.746" style="fill: none;"/>
    <bx:grid x="0" y="0" width="10.51" height="10.51"/>
  </defs>
  <g transform="matrix(1.27996, 0, 0, 1.223773, -47.523655, -88.084244)" style="">
    <g transform="matrix(1, 0, 0, 1, -7.111257, -2.031706)">
      <g>
        <path d="M 225.79 87.144 Q 241.309 78.051 256.828 87.144 L 398.225 169.995 Q 413.744 179.088 413.744 197.275 L 413.744 362.977 Q 413.744 381.163 398.225 390.257 L 256.828 473.108 Q 241.309 482.201 225.79 473.108 L 84.393 390.257 Q 68.874 381.164 68.874 362.977 L 68.874 197.275 Q 68.874 179.088 84.393 169.995 Z" style="fill-rule: nonzero; fill: rgb(63, 187, 152); paint-order: fill;" bx:shape="n-gon 241.309 280.126 199.111 202.075 6 0.09 1@f8f458f5"/>
        <rect x="119.343" y="241.434" width="33.646" height="116.722" style="fill: rgb(255, 255, 255);" rx="3.953" ry="3.953" transform="matrix(1, 0, 0.00198, 1, -1.680025, 7.851898)"/>
        <rect x="331.632" y="249.286" width="33.646" height="116.722" style="fill: rgb(255, 255, 255);" rx="3.953" ry="3.953"/>
      </g>
      <path d="M 238.859 148.349 Q 251.988 139.985 265.117 148.349 L 386.375 225.595 Q 399.504 233.959 373.246 233.959 L 130.73 233.959 Q 104.472 233.959 117.601 225.595 Z" style="fill: rgb(255, 255, 255);" transform="matrix(1, -0.000049, -0.028192, 1.000001, -4.910262, -1.433124)" bx:shape="triangle 104.472 139.985 295.032 93.974 0.5 0.089 1@5e821157"/>
    </g>
    <g transform="matrix(1.313791, 0, 0, 1.315617, 148.801254, 211.298737)" style="" bx:origin="0.676 0.612">
      <g fill="#fff">
        <path d="M114.73,60.05c-26.88.14-48.64,22.71-48.64,50.55v1.18H64V110.6C64,82.76,42.2,60.19,15.27,60.05A52.06,52.06,0,0,0,15,65.37c0,21.77,13.33,40.33,32,47.45A51.24,51.24,0,0,0,65,116.05,52,52,0,0,0,83,112.82c18.66-7.12,32-25.68,32-47.45A52.06,52.06,0,0,0,114.73,60.05Z"/>
        <circle cx="65" cy="47.29" r="16" transform="translate(-14.4 59.81) rotate(-45)"/>
      </g>
      <g fill="#0a2a66"/>
    </g>
  </g>
</svg>